<svg width="714" height="754" viewBox="0 0 714 754" fill="none" xmlns="http://www.w3.org/2000/svg">
<circle cx="357.5" cy="376.5" r="314.5" fill="#D9D9D9"/>
<path fill-rule="evenodd" clip-rule="evenodd" d="M664.24 446.243C669.319 423.81 672 400.468 672 376.5C672 353.468 669.524 331.013 664.824 309.389H50.1761C45.4759 331.013 43 353.468 43 376.5C43 400.468 45.6812 423.81 50.76 446.243H664.24Z" fill="#373636"/>
<mask id="path-3-outside-1_15_155" maskUnits="userSpaceOnUse" x="15.8954" y="411.243" width="683" height="314" fill="black">
<rect fill="white" x="15.8954" y="411.243" width="683" height="314"/>
<path fill-rule="evenodd" clip-rule="evenodd" d="M50.8953 446.243C82.6218 586.373 207.91 691 357.635 691C507.36 691 632.649 586.373 664.375 446.243H50.8953Z"/>
</mask>
<path fill-rule="evenodd" clip-rule="evenodd" d="M50.8953 446.243C82.6218 586.373 207.91 691 357.635 691C507.36 691 632.649 586.373 664.375 446.243H50.8953Z" fill="#D8D8D8"/>
<path d="M50.8954 446.243V412.029C40.4939 412.029 30.6572 416.761 24.1649 424.888C17.6726 433.014 15.2297 443.653 17.5266 453.798L50.8954 446.243ZM664.375 446.243L697.744 453.798C700.041 443.653 697.598 433.014 691.106 424.888C684.613 416.761 674.777 412.029 664.375 412.029V446.243ZM357.635 656.787C224.241 656.787 112.538 563.568 84.2642 438.688L17.5266 453.798C52.7057 609.177 191.579 725.213 357.635 725.213V656.787ZM631.006 438.688C602.733 563.568 491.029 656.787 357.635 656.787V725.213C523.692 725.213 662.565 609.177 697.744 453.798L631.006 438.688ZM50.8954 480.456H664.375V412.029H50.8954V480.456Z" fill="#D9D9D9" mask="url(#path-3-outside-1_15_155)"/>
<mask id="path-5-outside-2_15_155" maskUnits="userSpaceOnUse" x="18.8954" y="30" width="679" height="311" fill="black">
<rect fill="white" x="18.8954" y="30" width="679" height="311"/>
<path fill-rule="evenodd" clip-rule="evenodd" d="M665.543 309.389H50.8954C81.6406 167.939 207.558 62 358.219 62C508.88 62 634.798 167.939 665.543 309.389Z"/>
</mask>
<path fill-rule="evenodd" clip-rule="evenodd" d="M665.543 309.389H50.8954C81.6406 167.939 207.558 62 358.219 62C508.88 62 634.798 167.939 665.543 309.389Z" fill="url(#paint0_linear_15_155)"/>
<path d="M50.8954 309.389L20.0344 302.681C18.0052 312.017 20.3111 321.769 26.3063 329.208C32.3016 336.646 41.3417 340.971 50.8954 340.971L50.8954 309.389ZM665.543 309.389V340.971C675.097 340.971 684.137 336.646 690.132 329.208C696.128 321.769 698.433 312.017 696.404 302.681L665.543 309.389ZM81.7564 316.097C109.412 188.86 222.726 93.5816 358.219 93.5816V30.4184C192.39 30.4184 53.8687 147.019 20.0344 302.681L81.7564 316.097ZM358.219 93.5816C493.713 93.5816 607.026 188.86 634.682 316.097L696.404 302.681C662.57 147.019 524.048 30.4184 358.219 30.4184V93.5816ZM665.543 277.808H50.8954V340.971H665.543V277.808Z" fill="url(#paint1_linear_15_155)" mask="url(#path-5-outside-2_15_155)"/>
<mask id="path-7-outside-3_15_155" maskUnits="userSpaceOnUse" x="18.5432" y="412" width="679" height="311" fill="black">
<rect fill="white" x="18.5432" y="412" width="679" height="311"/>
<path fill-rule="evenodd" clip-rule="evenodd" d="M50.8954 443.611L665.543 443.611C634.798 585.061 508.88 691 358.219 691C207.558 691 81.6406 585.061 50.8954 443.611Z"/>
</mask>
<path fill-rule="evenodd" clip-rule="evenodd" d="M50.8954 443.611L665.543 443.611C634.798 585.061 508.88 691 358.219 691C207.558 691 81.6406 585.061 50.8954 443.611Z" fill="url(#paint2_linear_15_155)"/>
<path d="M50.8954 443.611L50.8954 412.029C41.3418 412.029 32.3016 416.354 26.3064 423.792C20.3111 431.231 18.0052 440.983 20.0344 450.319L50.8954 443.611ZM665.543 443.611L696.404 450.319C698.433 440.983 696.127 431.231 690.132 423.792C684.137 416.354 675.097 412.029 665.543 412.029L665.543 443.611ZM50.8954 475.193L665.543 475.192L665.543 412.029L50.8954 412.029L50.8954 475.193ZM634.682 436.903C607.026 564.14 493.713 659.418 358.219 659.418L358.219 722.582C524.048 722.582 662.57 605.981 696.404 450.319L634.682 436.903ZM358.219 659.418C222.726 659.418 109.412 564.14 81.7564 436.903L20.0344 450.319C53.8688 605.981 192.39 722.582 358.219 722.582L358.219 659.418Z" fill="url(#paint3_linear_15_155)" mask="url(#path-7-outside-3_15_155)"/>
<circle cx="357.5" cy="376.5" r="148.697" fill="#373636"/>
<circle cx="358.816" cy="375.184" r="105.272" fill="url(#paint4_linear_15_155)"/>
<circle cx="358.816" cy="375.184" r="69.7427" stroke="#373636" stroke-width="13.159"/>
<defs>
<linearGradient id="paint0_linear_15_155" x1="358.219" y1="62" x2="358.219" y2="309.389" gradientUnits="userSpaceOnUse">
<stop stop-color="#F98054"/>
<stop offset="1" stop-color="#F01515"/>
</linearGradient>
<linearGradient id="paint1_linear_15_155" x1="358.219" y1="62" x2="358.219" y2="309.389" gradientUnits="userSpaceOnUse">
<stop stop-color="#F98054"/>
<stop offset="1" stop-color="#F01515"/>
</linearGradient>
<linearGradient id="paint2_linear_15_155" x1="358.219" y1="691" x2="358.219" y2="443.611" gradientUnits="userSpaceOnUse">
<stop stop-color="white"/>
<stop offset="1" stop-color="#D9D9D9"/>
</linearGradient>
<linearGradient id="paint3_linear_15_155" x1="358.219" y1="691" x2="358.219" y2="443.611" gradientUnits="userSpaceOnUse">
<stop stop-color="white"/>
<stop offset="1" stop-color="#D9D9D9"/>
</linearGradient>
<linearGradient id="paint4_linear_15_155" x1="358.816" y1="269.912" x2="358.816" y2="480.456" gradientUnits="userSpaceOnUse">
<stop offset="0.485417" stop-color="#D9D9D9"/>
<stop offset="0.620833" stop-color="white"/>
</linearGradient>
</defs>
</svg>
